<?xml version="1.0" encoding="UTF-8" standalone="no" ?>
<!DOCTYPE svg PUBLIC "-//W3C//DTD SVG 1.1//EN" "http://www.w3.org/Graphics/SVG/1.1/DTD/svg11.dtd">
<svg xmlns="http://www.w3.org/2000/svg" xmlns:xlink="http://www.w3.org/1999/xlink" version="1.1" width="500" height="500" viewBox="0 0 500 500" xml:space="preserve">
<desc>Created with Fabric.js 4.6.0</desc>
<defs>
</defs>
<g transform="matrix(1.01 0 0 1.01 249.88 250.44)" id="HTaEmViUU__Jvr2ZXLd2k"  >
<path style="stroke: rgb(255,255,255); stroke-width: 1; stroke-dasharray: none; stroke-linecap: butt; stroke-dashoffset: 0; stroke-linejoin: miter; stroke-miterlimit: 4; fill: rgb(0,0,0); fill-opacity: 0; fill-rule: nonzero; opacity: 1;" vector-effect="non-scaling-stroke"  transform=" translate(0, 0)" d="M -247.38415 -247.38415 L 247.38415999999998 -247.38415 L 247.38415999999998 247.38415999999998 L -247.38415 247.38415999999998 z" stroke-linecap="round" />
</g>
<g transform="matrix(1.36 0 0 1.39 188.77 250)" id="XVEVcetE93kCbSQVIYkb1"  >
<path style="stroke: rgb(255,255,255); stroke-opacity: 0.53; stroke-width: 18; stroke-dasharray: none; stroke-linecap: butt; stroke-dashoffset: 0; stroke-linejoin: miter; stroke-miterlimit: 4; fill: rgb(255,255,255); fill-opacity: 0; fill-rule: nonzero; opacity: 0.43;" vector-effect="non-scaling-stroke"  transform=" translate(0, 0)" d="M 47.2344 -89.57415 L 47.2344 1.8355399999999946 L 47.2344 89.57415999999999 C 47.2344 89.57415999999999 21.11393 80.92877999999999 4.419130000000003 71.95300999999999 C -12.275669999999998 62.977239999999995 -20.921659999999996 55.02141999999999 -20.921659999999996 55.02141999999999 C -20.921659999999996 55.02141999999999 -35.290369999999996 43.135099999999994 -42.14144999999999 30.17620999999999 C -48.99252999999999 17.21731999999999 -46.94910999999999 1.8355299999999914 -46.94910999999999 1.8355299999999914 L -46.94910999999999 -89.57416 L -27.56584999999999 -89.57416 z" stroke-linecap="round" />
</g>
<g transform="matrix(-1.36 0 0 1.39 313.87 248.8)" id="IohqR7rZwzSuSTPHQNwke"  >
<path style="stroke: rgb(255,255,255); stroke-opacity: 0.53; stroke-width: 18; stroke-dasharray: none; stroke-linecap: butt; stroke-dashoffset: 0; stroke-linejoin: miter; stroke-miterlimit: 4; fill: rgb(255,255,255); fill-opacity: 0; fill-rule: nonzero; opacity: 0.43;" vector-effect="non-scaling-stroke"  transform=" translate(0, 0)" d="M 47.2344 -89.57415 L 47.2344 1.8355399999999946 L 47.2344 89.57415999999999 C 47.2344 89.57415999999999 21.11393 80.92877999999999 4.419130000000003 71.95300999999999 C -12.275669999999998 62.977239999999995 -20.921659999999996 55.02141999999999 -20.921659999999996 55.02141999999999 C -20.921659999999996 55.02141999999999 -35.290369999999996 43.135099999999994 -42.14144999999999 30.17620999999999 C -48.99252999999999 17.21731999999999 -46.94910999999999 1.8355299999999914 -46.94910999999999 1.8355299999999914 L -46.94910999999999 -89.57416 L -27.56584999999999 -89.57416 z" stroke-linecap="round" />
</g>
<g transform="matrix(-1.36 0 0 1.46 189.35 144.31)" id="eOUK2WU_mmnpEl2jgYsai"  >
<path style="stroke: rgb(255,255,255); stroke-width: 18; stroke-dasharray: none; stroke-linecap: butt; stroke-dashoffset: 0; stroke-linejoin: miter; stroke-miterlimit: 4; fill: rgb(255,255,255); fill-opacity: 0; fill-rule: nonzero; opacity: 1;" vector-effect="non-scaling-stroke"  transform=" translate(0, 0)" d="M -47.29534 -13.2012 L 0 -13.2012 L 47.29534 -13.2012 L 47.29534 4.499040000000001 L 47.29534 13.2012" stroke-linecap="round" />
</g>
<g transform="matrix(2.34 0 0 1.5 250.72 250.7)" id="ciD9DYgQJNwW-uyWLMSYA"  >
<path style="stroke: rgb(0,0,0); stroke-width: 0; stroke-dasharray: none; stroke-linecap: butt; stroke-dashoffset: 0; stroke-linejoin: miter; stroke-miterlimit: 4; fill: rgb(255,255,255); fill-rule: nonzero; opacity: 1;" vector-effect="non-scaling-stroke"  transform=" translate(0, 0)" d="M -5.50661 -89.53357 L 5.50661 -89.53357 L 5.50661 -9.004199999999997 L 5.50661 86.26113000000001 C 5.50661 86.26113000000001 1.98822 89.53356000000001 0.3125 89.53356000000001 C -1.36322 89.53356000000001 -5.50661 86.26113000000001 -5.50661 86.26113000000001 L -5.50661 -9.004199999999997 z" stroke-linecap="round" />
</g>
<g transform="matrix(1.46 0 0 1.46 184.22 334.7)" id="AElrvXp2Os4yTKIwbbpaw"  >
<path style="stroke: rgb(0,0,0); stroke-width: 0; stroke-dasharray: none; stroke-linecap: butt; stroke-dashoffset: 0; stroke-linejoin: miter; stroke-miterlimit: 4; fill: rgb(255,255,255); fill-rule: nonzero; opacity: 1;" vector-effect="non-scaling-stroke"  transform=" translate(0, 0)" d="M 45.04272 34.69705 L 16.922560000000004 23.817459999999997 C 16.922560000000004 23.817459999999997 9.271040000000005 20.487919999999995 2.806150000000004 16.946059999999996 C -3.658729999999996 13.404199999999996 -3.942929999999996 12.841749999999996 -8.936979999999997 9.650029999999996 C -13.931029999999996 6.4583099999999956 -15.265319999999996 5.449199999999996 -17.883469999999996 3.1090199999999957 C -19.972649999999994 1.2416499999999957 -21.787919999999996 0.20636999999999572 -25.334619999999994 -3.3764300000000045 C -28.881319999999995 -6.959230000000005 -30.248359999999995 -8.310180000000004 -33.25932999999999 -11.816710000000004 C -36.27029999999999 -15.323250000000005 -46.29459999999999 -28.243010000000005 -44.91273999999999 -29.902570000000004 C -43.53087999999999 -31.562130000000003 -32.218019999999996 -36.201330000000006 -31.84147999999999 -34.20839 C -31.46493999999999 -32.21544 -22.693899999999992 -19.793860000000002 -19.43397999999999 -16.451330000000002 C -16.17405999999999 -13.108790000000003 -16.91222999999999 -13.569190000000003 -12.29495999999999 -9.740680000000001 C -7.677679999999991 -5.9121700000000015 -2.2728399999999915 -2.0885300000000013 -2.2728399999999915 -2.0885300000000013 C -2.2728399999999915 -2.0885300000000013 3.1508400000000085 1.5747499999999985 8.339020000000009 4.423779999999999 C 13.527190000000008 7.272799999999998 13.430070000000008 7.07701 18.85083000000001 9.65003 C 24.27159000000001 12.22306 26.63857000000001 13.16298 30.25986000000001 14.478079999999999 C 33.88115000000001 15.793179999999998 33.03643000000001 15.424829999999998 36.73214000000001 16.94606 C 40.42785000000001 18.467299999999998 45.04271000000001 20.563029999999998 45.04271000000001 20.563029999999998 z" stroke-linecap="round" />
</g>
<g transform="matrix(1.46 0 0 1.46 182.46 231.63)" id="K0K_b0TS9QlzXYW_Popym"  >
<path style="stroke: rgb(0,0,0); stroke-width: 0; stroke-dasharray: none; stroke-linecap: butt; stroke-dashoffset: 0; stroke-linejoin: miter; stroke-miterlimit: 4; fill: rgb(255,255,255); fill-rule: nonzero; opacity: 1;" vector-effect="non-scaling-stroke"  transform=" translate(0, 0)" d="M 47.23806 -4.77641 L 40.11909 -11.77 L 35.87969 -4.776409999999999 L 24.152129999999996 -4.776409999999999 L -15.492840000000005 -4.776409999999999 L -30.655340000000002 -4.776409999999999 C -30.655340000000002 -4.776409999999999 -33.449850000000005 -13.123719999999999 -33.444 -14.05614 C -33.43815 -14.98856 -47.19661000000001 -14.05614 -47.19661000000001 -14.05614 L -47.19661000000001 -1.7963899999999988 C -47.19661000000001 -1.7963899999999988 -47.28987000000001 12.831140000000001 -47.19661000000001 13.874810000000002 C -47.103350000000006 14.918480000000002 -33.53726 14.374450000000001 -33.444 13.874810000000002 C -33.35074 13.375170000000002 -30.655340000000002 5.929760000000002 -30.655340000000002 5.929760000000002 L -15.492840000000003 5.929760000000002 L 24.15213 5.929760000000002 L 35.63031 5.929760000000002 L 40.11909 11.914800000000001 L 47.23806 5.929760000000002 z" stroke-linecap="round" />
</g>
<g transform="matrix(1.46 0 0 1.46 342.18 238.52)" id="GYqZ38Hhoqo42FhDfnmlT"  >
<path style="stroke: rgb(0,0,0); stroke-width: 0; stroke-dasharray: none; stroke-linecap: butt; stroke-dashoffset: 0; stroke-linejoin: miter; stroke-miterlimit: 4; fill: rgb(255,255,255); fill-rule: nonzero; opacity: 1;" vector-effect="non-scaling-stroke"  transform=" translate(0, 0)" d="M -0.78451 -83.87531 L -0.78451 -69.77011999999999 L 16.011609999999997 -69.77011999999999 L 16.011609999999997 -51.68500999999999 L 16.011609999999997 -27.92613999999999 L 16.011609999999997 -4.59287999999999 L 16.011609999999997 10.11161000000001 C 16.011609999999997 10.11161000000001 15.222689999999998 26.44417000000001 14.301509999999997 29.94487000000001 C 13.380329999999997 33.44557000000001 10.972959999999997 36.312740000000005 6.409739999999997 42.81539000000001 C 4.080649999999997 46.134370000000004 0.9419699999999969 50.090300000000006 -4.714380000000003 55.03481000000001 C -7.273890000000003 57.27221000000001 -10.897500000000003 60.510720000000006 -16.18906 63.897290000000005 C -22.11475 67.6897 -29.63154 71.54262 -30.11224 71.8893 C -31.9708 73.22969 -22.856009999999998 85.20551 -21.55051 83.75343000000001 C -21.1192 83.27369 -14.57139 79.62454000000001 -8.260819999999999 75.44630000000001 C -3.9119699999999993 72.56692000000001 0.3242200000000004 69.17759000000001 2.368310000000001 67.45011000000001 C 6.336050000000001 64.09693000000001 10.38578 59.77615000000001 12.520850000000001 57.30390000000001 C 17.35197 51.70981000000001 19.39862 49.634740000000015 22.15821 44.87463000000001 C 23.65955 42.28490000000001 25.08978 39.56663000000001 25.808590000000002 37.69910000000001 C 26.536050000000003 35.80910000000001 28.39064 30.80579000000001 29.1503 28.02558000000001 C 30.520960000000002 23.009180000000008 30.35488 14.272440000000008 30.35488 14.272440000000008 L 30.35488 -8.067989999999993 L 30.35488 -43.706869999999995 L 30.35488 -83.50352 z" stroke-linecap="round" />
</g>
<g transform="matrix(-1.46 0 0 1.46 317.54 214.44)" id="TDbclKYmH3_jzMUMR0Jbx"  >
<path style="stroke: rgb(0,0,0); stroke-width: 0; stroke-dasharray: none; stroke-linecap: butt; stroke-dashoffset: 0; stroke-linejoin: miter; stroke-miterlimit: 4; fill: rgb(255,255,255); fill-rule: nonzero; opacity: 1;" vector-effect="non-scaling-stroke"  transform=" translate(0, 0)" d="M 47.23806 -14.05614 L 36.94574 -10.96458 L 35.35711 -4.7764 L 24.15213 -4.7764 L -15.492840000000001 -4.7764 L -31.48768 -4.7764 C -31.48768 -4.7764 -33.44985 -13.123709999999999 -33.444 -14.05613 C -33.43815 -14.98855 -47.19661000000001 -14.05613 -47.19661000000001 -14.05613 L -47.19661000000001 -1.7963799999999992 C -47.19661000000001 -1.7963799999999992 -47.28987000000001 12.831150000000001 -47.19661000000001 13.874820000000001 C -47.103350000000006 14.918490000000002 -33.53726 14.374460000000001 -33.444 13.874820000000001 C -33.35074 13.375180000000002 -31.48768 5.929770000000001 -31.48768 5.929770000000001 L -15.492840000000001 5.929770000000001 L 24.15213 5.929770000000001 L 35.35711 5.929770000000001 L 36.94574 12.568060000000001 L 47.238060000000004 13.874820000000001 z" stroke-linecap="round" />
</g>
</svg>